<?xml version="1.0" encoding="utf-8"?>
<!-- Generated by IcoMoon.io -->
<svg version="1.1" xmlns="http://www.w3.org/2000/svg" xmlns:xlink="http://www.w3.org/1999/xlink" width="752" height="32" viewBox="0 0 752 32">
<symbol id="check" width="45" height="32" viewBox="0 0 45 32">
<path d="M42.17 0.638c-0.834-0.851-2.188-0.851-3.022 0l-25.606 26.102-9.843-10.033c-0.835-0.851-2.188-0.851-3.023 0s-0.835 2.23 0 3.081l11.354 11.574c0.834 0.851 2.189 0.85 3.023 0l27.117-27.643c0.835-0.851 0.835-2.23 0-3.081z"></path>
</symbol>
<symbol id="clock" width="14" height="18" viewBox="0 0 26 32" >
<path d="M23.664 2.689h1.614c0.302 0 0.538-0.235 0.538-0.538v-1.076c0-0.303-0.235-0.538-0.538-0.538h-24.74c-0.303 0-0.538 0.235-0.538 0.538v1.076c0 0.303 0.235 0.538 0.538 0.538h1.613c0 6.219 2.975 10.723 6.269 12.908-3.294 2.185-6.269 6.689-6.269 12.908h-1.613c-0.303 0-0.538 0.235-0.538 0.538v1.076c0 0.302 0.235 0.538 0.538 0.538h24.74c0.302 0 0.538-0.235 0.538-0.538v-1.076c0-0.302-0.235-0.538-0.538-0.538h-1.614c0-6.219-2.975-10.723-6.269-12.908 3.294-2.185 6.269-6.689 6.269-12.908zM21.513 2.689c0 2.454-0.555 4.622-1.429 6.454h-14.353c-0.874-1.832-1.429-4-1.429-6.454h17.21zM20.555 23.126h-15.294c1.244-3.244 3.479-5.546 5.714-6.454h3.866c2.235 0.908 4.471 3.21 5.714 6.454z"></path>
</symbol>
<symbol id="cursor" width="12" height="18" viewBox="0 0 663 1024">
<path d="M609.346 578.151l-550.724-550.722c-6.454-6.992-15.059-10.219-24.202-10.219-4.303 0-9.143 1.076-12.908 2.689-12.908 5.378-21.513 17.748-21.513 31.731v808.873c0 13.987 8.605 26.353 21.513 31.732 3.765 1.614 8.605 2.686 12.908 2.686 9.143 0 17.748-3.765 24.202-10.216l167.798-167.797 102.723 243.092c7.529 17.209 27.428 25.817 45.176 18.287l95.193-40.34c17.21-7.529 25.816-27.425 18.286-45.176l-108.101-256h205.446c13.983 0 26.354-8.602 31.733-21.51 5.379-12.372 2.686-27.429-7.529-37.11z"></path>
</symbol>
<symbol id="facebook" viewBox="0 0 32 32" >
<path fill="none" stroke-linejoin="round" stroke-linecap="round" stroke-miterlimit="4" stroke-width="2.6667" d="M24 2.667h-4c-1.768 0-3.464 0.702-4.714 1.953s-1.953 2.946-1.953 4.714v4h-4v5.333h4v10.667h5.333v-10.667h4l1.333-5.333h-5.333v-4c0-0.354 0.141-0.693 0.391-0.943s0.589-0.391 0.943-0.391h4v-5.333z"></path>
</symbol>
<symbol id="heart" width="16" height="18" viewBox="0 0 34 32" >
<path d="M17.067 30.172c0.305 0 0.61-0.114 0.838-0.343l11.867-11.428c0.171-0.171 4.362-4 4.362-8.571 0-5.581-3.41-8.914-9.105-8.914-3.333 0-6.457 2.629-7.962 4.114-1.505-1.486-4.629-4.114-7.962-4.114-5.695 0-9.105 3.333-9.105 8.914 0 4.571 4.191 8.4 4.343 8.533l11.886 11.467c0.229 0.229 0.533 0.343 0.838 0.343z"></path>
</symbol>
<symbol id="instagram" viewBox="0 0 32 32" >
<path fill="none" stroke-linejoin="round" stroke-linecap="round" stroke-miterlimit="4" stroke-width="2.6667"  d="M22.667 2.667h-13.333c-3.682 0-6.667 2.985-6.667 6.667v13.333c0 3.682 2.985 6.667 6.667 6.667h13.333c3.682 0 6.667-2.985 6.667-6.667v-13.333c0-3.682-2.985-6.667-6.667-6.667z"></path>
<path fill="none" stroke-linejoin="round" stroke-linecap="round" stroke-miterlimit="4" stroke-width="2.6667"  d="M21.333 15.16c0.165 1.11-0.025 2.243-0.542 3.239s-1.334 1.803-2.336 2.308c-1.002 0.504-2.138 0.68-3.245 0.502s-2.131-0.701-2.924-1.494-1.316-1.816-1.494-2.924c-0.178-1.107-0.003-2.243 0.502-3.245s1.312-1.82 2.307-2.336c0.996-0.517 2.129-0.706 3.239-0.542 1.132 0.168 2.18 0.695 2.989 1.504s1.337 1.857 1.505 2.989z"></path>
<path fill="none" stroke-linejoin="round" stroke-linecap="round" stroke-miterlimit="4" stroke-width="2.6667"  d="M23.333 8.667h0.013"></path>
</symbol>
<symbol id="logo" viewBox="0 0 36 32">
<path fill="#02bc6b" d="M2.785 30.323c-1.532 0-2.785-1.241-2.785-2.757v-9.639h7.010v-0.011h4.213c1.086-0.028 2.005-0.965 2.005-2.068 0-1.13-0.947-2.068-2.089-2.068l-11.14 0.002v-2.759c0-1.516 1.253-2.757 2.785-2.757h8.355c2.117 0 3.927 0.744 5.403 2.233 1.504 1.461 2.256 3.253 2.256 5.349 0 2.068-0.724 3.86-2.2 5.321s-3.258 2.233-5.347 2.261h-5.681v4.136c0 1.516-1.253 2.757-2.785 2.757z"></path>
<path fill="#02897a" d="M22.309 5.067c3.077 2.959 4.627 6.644 4.627 10.832 0 4.118-1.486 7.8-4.515 10.768l-4.301-4.006c1.884-1.846 2.809-4.068 2.809-6.761 0-2.714-0.953-4.933-2.882-6.788l4.262-4.044z"></path>
<path fill="#035b81" d="M28.894 0c4.432 4.38 6.662 9.812 6.662 16.046 0 6.136-2.14 11.564-6.499 15.954l-4.151-4.015c3.247-3.27 4.838-7.236 4.838-11.939 0-4.75-1.645-8.713-4.962-11.992l4.113-4.053z"></path>
<path fill="#028e37" d="M0 23.454h5.57v4.113c0 1.516-1.253 2.757-2.785 2.757s-2.785-1.241-2.785-2.757v-4.113z"></path>
</symbol>
<symbol id="menu" width="29" height="32" viewBox="0 0 29 32" >
<path fill="none" stroke-linejoin="round" stroke-linecap="round" stroke-miterlimit="4" stroke-width="3.0968" stroke="#000" d="M3.613 16h21.677"></path>
<path fill="none" stroke-linejoin="round" stroke-linecap="round" stroke-miterlimit="4" stroke-width="3.0968" stroke="#000" d="M3.613 8h21.677"></path>
<path fill="none" stroke-linejoin="round" stroke-linecap="round" stroke-miterlimit="4" stroke-width="3.0968" stroke="#000" d="M3.613 24h21.677"></path>
</symbol>
<symbol id="mobile-screen" viewBox="0 0 16 24" >
  <path d="M13.8182 0H2.18182C0.977273 0 0 1.00781 0 2.25V21.75C0 22.9922 0.977273 24 2.18182 24H13.8182C15.0227 24 16 22.9922 16 21.75V2.25C16 1.00781 15.0227 0 13.8182 0ZM10.1818 20.9578C10.1818 21.4125 9.85455 21.75 9.45455 21.75H6.50455C6.14545 21.75 5.81818 21.4125 5.81818 21C5.81818 20.5875 6.14545 20.25 6.54545 20.25H9.45455C9.85455 20.25 10.1818 20.5875 10.1818 20.9578ZM13.0909 18H2.90909V3H13.0909V18Z"  />
</symbol>
<symbol id="play" width="16" height="18" viewBox="0 0 16 18" fill="none">
  <path fill-rule="evenodd" clip-rule="evenodd" d="M14.6744 7.25119C16.0472 8.01295 16.0472 9.98705 14.6744 10.7488L2.77489 17.3518C1.44185 18.0914 -0.195505 17.1275 -0.195505 15.6029V2.39705C-0.195505 0.872535 1.44185 -0.0914478 2.77489 0.648247L14.6744 7.25119Z" fill="#02897A" />
</symbol>
<symbol id="twitter" viewBox="0 0 32 32" >
<path fill="none" stroke-linejoin="round" stroke-linecap="round" stroke-miterlimit="4" stroke-width="2.6667" d="M30.667 4.013c-1.277 0.901-2.691 1.589-4.187 2.040-0.803-0.923-1.87-1.578-3.057-1.875s-2.437-0.222-3.58 0.214c-1.143 0.436-2.125 1.213-2.812 2.226s-1.047 2.211-1.031 3.435v1.333c-2.343 0.061-4.665-0.459-6.759-1.513s-3.894-2.609-5.241-4.527c0 0-5.333 12 6.667 17.333-2.746 1.864-6.017 2.799-9.333 2.667 12 6.667 26.667 0 26.667-15.333-0.001-0.371-0.037-0.742-0.107-1.107 1.361-1.342 2.321-3.036 2.773-4.893v0z"></path>
</symbol>
<symbol id="wave" width="18" height="18" viewBox="0 0 41 32" >
<path d="M21.673 12.898l2.674 1.245 3.98-1.184v-2.775c0-4.714-3.98-8.49-8.735-8.49-4.735 0-8.735 3.755-8.735 8.429v12.653c0 1.163-0.939 2.082-2.082 2.082s-2.082-0.918-2.082-2.082v-5.347h-6.694c0 5.367 0 5.429 0 5.429 0 4.837 3.918 8.755 8.755 8.755 4.796 0 8.755-3.857 8.755-8.633v-12.49c0-1.143 0.939-2.082 2.082-2.082s2.082 0.939 2.082 2.082v2.408zM32.49 17.429v5.612c0 1.143-0.939 2.061-2.082 2.061s-2.082-0.918-2.082-2.061v-5.51l-3.98 1.184-2.674-1.245v5.469c0 4.796 3.939 8.674 8.755 8.674 4.837 0 8.755-3.918 8.755-8.755 0 0 0-0.061 0-5.429h-6.694z"></path>
</symbol>
<symbol id="col-star" width="19" height="19" viewBox="0 0 19 19" >
  <path d="M18.2961 6.58663C18.2384 6.41682 18.1323 6.26761 17.9908 6.15742C17.8493 6.04723 17.6787 5.98089 17.4999 5.96658L12.2708 5.55107L10.008 0.542056C9.9359 0.380725 9.81869 0.243699 9.67047 0.147514C9.52225 0.0513295 9.34936 9.71158e-05 9.17266 1.37932e-07C8.99597 -9.684e-05 8.82302 0.0509458 8.6747 0.146968C8.52637 0.24299 8.40901 0.379887 8.33677 0.541138L6.07395 5.55107L0.844797 5.96658C0.669105 5.9805 0.501144 6.04474 0.361006 6.15161C0.220868 6.25849 0.114488 6.40348 0.0545932 6.56923C-0.00530196 6.73498 -0.0161763 6.91448 0.0232713 7.08625C0.062719 7.25802 0.150818 7.41479 0.277029 7.5378L4.14134 11.3049L2.77466 17.2229C2.73316 17.402 2.74646 17.5895 2.81283 17.761C2.8792 17.9324 2.99559 18.08 3.14687 18.1845C3.29816 18.2891 3.47737 18.3457 3.66124 18.3471C3.84511 18.3485 4.02516 18.2946 4.17803 18.1924L9.17237 14.8628L14.1667 18.1924C14.3229 18.2961 14.5072 18.3495 14.6947 18.3454C14.8822 18.3413 15.0639 18.2799 15.2155 18.1694C15.367 18.0589 15.4811 17.9047 15.5423 17.7274C15.6036 17.5502 15.6091 17.3584 15.5581 17.1779L13.8805 11.3076L18.0411 7.56348C18.3135 7.31766 18.4135 6.93426 18.2961 6.58663Z" />
</symbol>
<symbol id="uncol-star" width="19" height="19" viewBox="0 0 19 19" >
  <path d="M4.19792 11.3044L2.83124 17.2224C2.78892 17.4016 2.80162 17.5894 2.86769 17.7613C2.93376 17.9331 3.05013 18.0811 3.20159 18.1858C3.35305 18.2905 3.53257 18.3471 3.71669 18.3482C3.90082 18.3493 4.081 18.2948 4.23369 18.1919L9.22803 14.8624L14.2224 18.1919C14.3786 18.2957 14.5629 18.3491 14.7504 18.345C14.9379 18.3408 15.1196 18.2794 15.2711 18.1689C15.4227 18.0584 15.5367 17.9042 15.598 17.727C15.6593 17.5497 15.6648 17.358 15.6138 17.1775L13.9362 11.3072L18.0968 7.56302C18.23 7.44304 18.3252 7.28663 18.3705 7.11313C18.4158 6.93964 18.4092 6.75667 18.3517 6.58685C18.2941 6.41703 18.188 6.26782 18.0465 6.15766C17.905 6.0475 17.7343 5.98123 17.5556 5.96704L12.3264 5.55061L10.0636 0.541597C9.99148 0.380306 9.87419 0.243344 9.72591 0.147241C9.57764 0.0511377 9.40472 0 9.22803 0C9.05134 0 8.87842 0.0511377 8.73015 0.147241C8.58187 0.243344 8.46458 0.380306 8.39243 0.541597L6.12961 5.55061L0.900461 5.96612C0.72477 5.98004 0.556808 6.04428 0.41667 6.15115C0.276532 6.25803 0.170153 6.40302 0.110257 6.56877C0.0503621 6.73452 0.0394878 6.91402 0.0789354 7.08579C0.118383 7.25756 0.206482 7.41433 0.332693 7.53734L4.19792 11.3044ZM6.81479 7.33647C6.97851 7.32357 7.13574 7.26686 7.27001 7.1723C7.40428 7.07773 7.51064 6.94878 7.57793 6.79897L9.22803 3.14746L10.8781 6.79897C10.9454 6.94878 11.0518 7.07773 11.186 7.1723C11.3203 7.26686 11.4776 7.32357 11.6413 7.33647L15.2845 7.6254L12.2843 10.3257C12.0238 10.5605 11.9201 10.9219 12.0155 11.2595L13.1648 15.2815L9.73801 12.9967C9.5876 12.8958 9.41055 12.8419 9.22941 12.8419C9.04826 12.8419 8.87121 12.8958 8.7208 12.9967L5.13992 15.3843L6.10301 11.2145C6.13833 11.0612 6.13359 10.9013 6.08925 10.7503C6.04492 10.5993 5.96247 10.4623 5.84986 10.3523L3.0633 7.63548L6.81479 7.33647Z" />
</symbol>

<!-- Customer page icons -->

<symbol id="airbnb" viewBox="0 0 159 50" >
<g clip-path="url(#clip0_42_77)">
<path d="M45.5801 35.4362C45.3306 34.8269 45.0968 34.1862 44.8474 33.6394L43.6939 31.03L43.6471 30.9831C40.2177 23.4831 36.5545 15.8581 32.673 8.35811L32.5171 8.04561C32.1274 7.31124 31.7377 6.49874 31.3324 5.74874C30.8336 4.85811 30.3503 3.90499 29.5553 2.99874C28.7804 2.05051 27.8051 1.28653 26.6999 0.761949C25.5947 0.237366 24.3871 -0.0347443 23.1642 -0.0347443C21.9413 -0.0347443 20.7337 0.237366 19.6284 0.761949C18.5232 1.28653 17.5479 2.05051 16.773 2.99874C16.0403 3.90499 15.4948 4.85811 14.9959 5.74874C14.6062 6.56124 14.2165 7.35811 13.8112 8.09249L13.6554 8.40499C9.83623 15.905 6.11065 23.53 2.68123 31.03L2.5877 31.1237C2.24476 31.9362 1.83947 32.78 1.44976 33.6862C1.20035 34.2331 0.95094 34.8269 0.701529 35.4831C0.0281678 37.2015 -0.186858 39.0662 0.0776443 40.8932C0.342146 42.7203 1.07705 44.4468 2.20992 45.9025C3.34279 47.3582 4.83452 48.4929 6.53811 49.1947C8.2417 49.8966 10.0983 50.1414 11.9251 49.905C13.6763 49.6739 15.3627 49.0892 16.8821 48.1862C18.9086 47.0456 20.8571 45.3894 23.0395 42.9987C25.2218 45.3894 27.2171 47.0456 29.1968 48.2019C31.1006 49.3219 33.2565 49.9401 35.4633 49.9987C38.0187 50.0094 40.4918 49.0929 42.4257 47.4186C44.3597 45.7443 45.6241 43.4251 45.9853 40.8894C46.4029 39.0671 46.2616 37.161 45.5801 35.4206V35.4362ZM23.1954 38.03C20.5142 34.5925 18.7683 31.4362 18.1759 28.7331C17.9305 27.7315 17.8776 26.6921 18.0201 25.6706C18.1292 24.8737 18.4254 24.1706 18.8306 23.5769C19.7659 22.2175 21.4027 21.3737 23.1954 21.3737C24.0467 21.3477 24.8911 21.5339 25.653 21.9157C26.4148 22.2975 27.0701 22.8629 27.5601 23.5612C27.9654 24.1862 28.2615 24.8737 28.3551 25.6706C28.5109 26.5769 28.4486 27.6237 28.1992 28.7331C27.6068 31.3894 25.8609 34.5769 23.1954 38.03ZM43.0548 40.3425C42.8777 41.6299 42.3671 42.8483 41.5739 43.8764C40.7808 44.9044 39.7327 45.7062 38.5342 46.2019C37.3495 46.7019 36.0401 46.8425 34.7618 46.7019C33.5148 46.5456 32.2677 46.1394 30.9895 45.3894C28.8671 44.0745 26.9587 42.4409 25.3309 40.5456C28.6045 36.4831 30.5842 32.78 31.3324 29.4831C31.6909 27.9206 31.7377 26.5144 31.5818 25.2175C31.3872 23.9882 30.9299 22.8157 30.2412 21.78C29.455 20.657 28.4055 19.7447 27.185 19.1236C25.9646 18.5024 24.6106 18.1912 23.2421 18.2175C20.3583 18.2175 17.7862 19.5612 16.2274 21.7644C15.5257 22.7974 15.0722 23.9793 14.9024 25.2175C14.6998 26.53 14.7465 27.9831 15.1518 29.4831C15.9001 32.78 17.9265 36.53 21.1533 40.5769C19.5531 42.5084 17.6403 44.1563 15.4948 45.4519C14.2009 46.2019 12.9695 46.5925 11.7224 46.7487C9.78305 46.9977 7.82402 46.4694 6.27114 45.2786C4.71826 44.0878 3.69705 42.3307 3.42947 40.3894C3.27359 39.1394 3.3827 37.8894 3.88153 36.4831C4.03741 35.9831 4.27123 35.4831 4.52065 34.8894C4.86359 34.0769 5.26888 33.2331 5.65859 32.3894L5.72094 32.28C9.088 24.8269 12.7668 17.2175 16.5859 9.76436L16.7418 9.45186C17.1315 8.70186 17.5212 7.90499 17.9265 7.15499C18.3318 6.35811 18.7683 5.59249 19.3295 4.96749C19.8152 4.38627 20.4222 3.91885 21.1076 3.59814C21.793 3.27743 22.5402 3.11122 23.2967 3.11122C24.0531 3.11122 24.8003 3.27743 25.4858 3.59814C26.1712 3.91885 26.7781 4.38627 27.2639 4.96749C27.8095 5.59249 28.2615 6.35811 28.6668 7.15499C29.0565 7.90499 29.4462 8.71749 29.8515 9.45186L30.0074 9.76436C33.8109 17.2175 37.4898 24.8269 40.9192 32.28L40.9659 32.3269C41.3712 33.1394 41.7142 34.0456 42.1039 34.8269C42.3533 35.4362 42.6027 35.9206 42.7586 36.4362C43.0548 37.8425 43.2106 39.0925 43.0548 40.3425ZM64.7536 37.6862C63.5789 37.7035 62.4155 37.4554 61.3496 36.9604C60.2837 36.4654 59.3426 35.7362 58.5962 34.8269C56.919 32.8893 56.0289 30.3911 56.1021 27.8269C56.0765 25.2069 56.9953 22.6657 58.6898 20.6706C59.4735 19.7497 60.4492 19.0122 61.548 18.5101C62.6469 18.008 63.8422 17.7534 65.0498 17.7644C66.186 17.7332 67.3116 17.9922 68.3205 18.517C69.3294 19.0418 70.1887 19.8151 70.8174 20.7644L70.9733 18.3112H75.525V37.1862H70.9577L70.8018 34.4362C70.1536 35.4498 69.2577 36.2804 68.1991 36.8492C67.1405 37.418 65.9545 37.7062 64.7536 37.6862ZM65.9383 33.1862C66.8424 33.1862 67.6374 32.9362 68.3856 32.4831C69.0715 31.9831 69.6327 31.3269 70.0692 30.53C70.4589 29.7331 70.6615 28.78 70.6615 27.7175C70.7223 26.7947 70.5431 25.8718 70.1414 25.0392C69.7398 24.2067 69.1294 23.4928 68.37 22.9675C67.6404 22.5118 66.798 22.2703 65.9383 22.2703C65.0786 22.2703 64.2362 22.5118 63.5065 22.9675C62.8206 23.4675 62.2595 24.1237 61.823 24.9206C61.4108 25.7994 61.208 26.7623 61.2306 27.7331C61.1699 28.6559 61.3491 29.5788 61.7507 30.4114C62.1524 31.244 62.7627 31.9578 63.5221 32.4831C64.2548 32.9362 65.0498 33.1862 65.9383 33.1862ZM83.3192 13.2175C83.3192 13.7644 83.2256 14.2644 82.9762 14.6706C82.7268 15.0612 82.3839 15.4206 81.9318 15.6706C81.4798 15.9206 80.9965 16.0144 80.4977 16.0144C79.9989 16.0144 79.5 15.9206 79.048 15.6706C78.6205 15.432 78.2609 15.0878 78.0036 14.6706C77.7622 14.2255 77.6438 13.7238 77.6606 13.2175C77.6606 12.655 77.7698 12.155 78.0036 11.7644C78.253 11.2956 78.6115 11.0144 79.048 10.7644C79.5 10.5144 79.9833 10.405 80.4977 10.405C80.9939 10.3935 81.4846 10.5113 81.9217 10.7469C82.3589 10.9824 82.7276 11.3276 82.9918 11.7487C83.2187 12.2043 83.331 12.7085 83.3192 13.2175ZM78.0192 37.1237V18.28H82.9762V37.155H78.0036L78.0192 37.1237ZM96.2262 23.2175V23.28C95.9924 23.1706 95.6806 23.1237 95.4468 23.0769C95.135 23.0144 94.8856 23.0144 94.5895 23.0144C93.2021 23.0144 92.1577 23.4206 91.4718 24.2644C90.7236 25.1237 90.3806 26.3269 90.3806 27.8737V37.1394H85.408V18.2644H89.9753L90.1312 21.1237C90.63 20.1237 91.2224 19.3737 92.0642 18.8112C92.9015 18.2647 93.8872 17.9918 94.8856 18.03C95.2442 18.03 95.5871 18.0612 95.8833 18.1237C96.0392 18.1706 96.1327 18.1706 96.2262 18.2175V23.2175ZM98.2215 37.1237V10.53H103.179V20.6862C103.88 19.78 104.675 19.0769 105.673 18.53C107.252 17.7538 109.046 17.5336 110.766 17.905C112.485 18.2763 114.03 19.2176 115.15 20.5769C116.831 22.5184 117.722 25.023 117.644 27.5925C117.67 30.2125 116.751 32.7537 115.057 34.7487C114.273 35.6696 113.297 36.4071 112.199 36.9092C111.1 37.4114 109.904 37.6659 108.697 37.655C107.561 37.6862 106.435 37.4272 105.426 36.9024C104.417 36.3776 103.558 35.6042 102.929 34.655L102.773 37.1081L98.2215 37.155V37.1237ZM107.808 33.1862C108.697 33.1862 109.492 32.9362 110.24 32.4831C110.926 31.9831 111.487 31.3269 111.924 30.53C112.329 29.7331 112.516 28.78 112.516 27.7175C112.516 26.6706 112.329 25.7175 111.924 24.9206C111.514 24.1522 110.939 23.485 110.24 22.9675C109.51 22.5118 108.668 22.2703 107.808 22.2703C106.949 22.2703 106.106 22.5118 105.377 22.9675C104.675 23.4675 104.129 24.1237 103.677 24.9206C103.265 25.7994 103.062 26.7623 103.085 27.7331C103.024 28.6559 103.203 29.5788 103.605 30.4114C104.007 31.244 104.617 31.9578 105.377 32.4831C106.109 32.9362 106.904 33.1862 107.808 33.1862ZM119.515 37.1394V18.2644H124.082L124.238 20.7175C124.812 19.7772 125.626 19.0076 126.597 18.4884C127.567 17.9692 128.658 17.7192 129.757 17.7644C131.013 17.7426 132.248 18.0927 133.307 18.7708C134.366 19.4489 135.203 20.4249 135.711 21.5769C136.257 22.7644 136.553 24.2331 136.553 25.8737V37.1862H131.58V26.53C131.58 25.2175 131.284 24.1862 130.692 23.4206C130.099 22.6706 129.289 22.2644 128.26 22.2644C127.512 22.2644 126.857 22.4206 126.28 22.7644C125.735 23.1237 125.283 23.5769 124.94 24.2175C124.593 24.8651 124.421 25.5922 124.441 26.3269V37.1394H119.515ZM139.032 37.1394V10.5144H144.004V20.6706C144.678 19.7593 145.554 19.0179 146.563 18.5053C147.572 17.9927 148.687 17.7229 149.819 17.7175C150.993 17.7003 152.157 17.9483 153.223 18.4433C154.288 18.9383 155.23 19.6675 155.976 20.5769C157.645 22.5183 158.529 25.0152 158.454 27.5769C158.482 30.1971 157.562 32.7388 155.867 34.7331C155.083 35.654 154.107 36.3915 153.009 36.8936C151.91 37.3957 150.714 37.6503 149.507 37.6394C148.371 37.6705 147.245 37.4116 146.236 36.8868C145.227 36.362 144.368 35.5886 143.739 34.6394L143.599 37.0925L139.032 37.1394ZM148.665 33.1862C149.569 33.1862 150.364 32.9362 151.097 32.4831C151.798 31.9831 152.344 31.3269 152.796 30.53C153.186 29.7331 153.388 28.78 153.388 27.7175C153.449 26.7947 153.27 25.8718 152.868 25.0392C152.467 24.2067 151.856 23.4928 151.097 22.9675C150.367 22.5118 149.525 22.2703 148.665 22.2703C147.805 22.2703 146.963 22.5118 146.233 22.9675C145.547 23.4675 144.986 24.1237 144.55 24.9206C144.115 25.7916 143.911 26.7602 143.957 27.7331C143.897 28.6559 144.076 29.5788 144.477 30.4114C144.879 31.244 145.49 31.9578 146.249 32.4831C146.982 32.9362 147.73 33.1862 148.665 33.1862Z" fill="#FF385C"/>
</g>
<defs>
<clipPath id="clip0_42_77">
<rect width="159" height="50" fill="white"/>
</clipPath>
</defs>
</symbol>

<symbol id="google" width="146" height="50" viewBox="0 0 146 50" >
<path d="M62.1307 25.6412C62.1307 32.5814 56.7684 37.6956 50.1876 37.6956C43.6069 37.6956 38.2446 32.5814 38.2446 25.6412C38.2446 18.6521 43.6069 13.5869 50.1876 13.5869C56.7684 13.5869 62.1307 18.6521 62.1307 25.6412ZM56.9026 25.6412C56.9026 21.3043 53.7947 18.3369 50.1876 18.3369C46.5806 18.3369 43.4727 21.3043 43.4727 25.6412C43.4727 29.9347 46.5806 32.9456 50.1876 32.9456C53.7947 32.9456 56.9026 29.9293 56.9026 25.6412Z" fill="#EA4335"/>
<path d="M87.8953 25.6412C87.8953 32.5814 82.533 37.6956 75.9523 37.6956C69.3716 37.6956 64.0093 32.5814 64.0093 25.6412C64.0093 18.6575 69.3716 13.5869 75.9523 13.5869C82.533 13.5869 87.8953 18.6521 87.8953 25.6412ZM82.6672 25.6412C82.6672 21.3043 79.5593 18.3369 75.9523 18.3369C72.3452 18.3369 69.2374 21.3043 69.2374 25.6412C69.2374 29.9347 72.3452 32.9456 75.9523 32.9456C79.5593 32.9456 82.6672 29.9293 82.6672 25.6412Z" fill="#FBBC05"/>
<path d="M112.586 14.3151V35.9564C112.586 44.8586 107.401 48.4945 101.271 48.4945C95.5012 48.4945 92.0283 44.5869 90.7186 41.3912L95.2704 39.4727C96.0809 41.4347 98.0669 43.7499 101.266 43.7499C105.19 43.7499 107.621 41.2988 107.621 36.6847V34.951H107.439C106.269 36.413 104.014 37.6901 101.169 37.6901C95.2167 37.6901 89.7632 32.4401 89.7632 25.6847C89.7632 18.8804 95.2167 13.5869 101.169 13.5869C104.009 13.5869 106.263 14.8641 107.439 16.2825H107.621V14.3206H112.586V14.3151ZM107.992 25.6847C107.992 21.4401 105.195 18.3369 101.636 18.3369C98.0294 18.3369 95.0074 21.4401 95.0074 25.6847C95.0074 29.8858 98.0294 32.9456 101.636 32.9456C105.195 32.9456 107.992 29.8858 107.992 25.6847Z" fill="#4285F4"/>
<path d="M120.772 1.63042V36.9565H115.673V1.63042H120.772Z" fill="#34A853"/>
<path d="M140.643 29.6087L144.701 32.3478C143.392 34.3098 140.236 37.6902 134.782 37.6902C128.019 37.6902 122.968 32.3967 122.968 25.6358C122.968 18.4674 128.062 13.5815 134.197 13.5815C140.375 13.5815 143.397 18.5598 144.385 21.25L144.927 22.6195L129.012 29.2935C130.23 31.7119 132.125 32.9456 134.782 32.9456C137.444 32.9456 139.291 31.6195 140.643 29.6087ZM128.153 25.2717L138.792 20.7989C138.207 19.2935 136.446 18.2445 134.374 18.2445C131.717 18.2445 128.019 20.6195 128.153 25.2717Z" fill="#EA4335"/>
<path d="M18.9426 22.5054V17.3913H35.9634C36.1298 18.2826 36.2156 19.3369 36.2156 20.4782C36.2156 24.3152 35.1797 29.0597 31.841 32.4402C28.5936 35.8641 24.4444 37.6902 18.9479 37.6902C8.76012 37.6902 0.193359 29.288 0.193359 18.9728C0.193359 8.65756 8.76012 0.255386 18.9479 0.255386C24.5839 0.255386 28.5989 2.49452 31.6156 5.41299L28.0514 9.02169C25.8883 6.96734 22.9576 5.36952 18.9426 5.36952C11.503 5.36952 5.68446 11.4402 5.68446 18.9728C5.68446 26.5054 11.503 32.576 18.9426 32.576C23.7681 32.576 26.5163 30.6141 28.2769 28.8315C29.7047 27.3858 30.644 25.3206 31.0144 22.5L18.9426 22.5054Z" fill="#4285F4"/>
</symbol>

<symbol id="microsoft" width="164" height="34" viewBox="0 0 164 34" fill="none" xmlns="http://www.w3.org/2000/svg">
<g clip-path="url(#clip0_42_86)">
<path d="M57.8888 19.5829L56.9113 22.2713H56.8298C56.6669 21.6651 56.3683 20.7426 55.8795 19.6357L50.6391 6.85271H45.5073V27.2264H48.9014V14.6543C48.9014 13.8636 48.9014 12.9674 48.8742 11.8605C48.8471 11.307 48.7928 10.8853 48.7656 10.569H48.8471C49.01 11.3597 49.2 11.9395 49.3358 12.3085L55.6351 27.1736H58.0245L64.2696 12.1767C64.4053 11.8341 64.5411 11.1488 64.6769 10.569H64.7583C64.6769 12.0713 64.6226 13.4155 64.5954 14.2326V27.1473H68.2067V6.79999H63.2649L57.8888 19.5829ZM71.6278 12.5457H75.1576V27.1473H71.6278V12.5457ZM73.4199 6.37829C72.8226 6.37829 72.3338 6.58914 71.9265 6.95813C71.5192 7.32713 71.302 7.80154 71.302 8.38139C71.302 8.93488 71.5192 9.4093 71.9265 9.77829C72.3338 10.1473 72.8226 10.3318 73.4199 10.3318C74.0173 10.3318 74.5331 10.1209 74.9133 9.77829C75.3206 9.4093 75.5378 8.93488 75.5378 8.38139C75.5378 7.8279 75.3206 7.35348 74.9133 6.95813C74.5603 6.58914 74.0444 6.37829 73.4199 6.37829ZM87.6749 12.4139C87.0232 12.2822 86.3444 12.2031 85.6928 12.2031C84.0908 12.2031 82.6245 12.5457 81.4027 13.231C80.1808 13.9163 79.2033 14.8651 78.5788 16.0512C77.9272 17.2636 77.6014 18.6605 77.6014 20.2682C77.6014 21.6651 77.9272 22.9039 78.5517 24.0372C79.1762 25.1442 80.0451 26.0403 81.2126 26.6465C82.3259 27.2527 83.6292 27.569 85.0954 27.569C86.7788 27.569 88.2179 27.2263 89.3583 26.5938L89.3855 26.5674V23.4046L89.2497 23.5101C88.7338 23.8791 88.1365 24.1953 87.5391 24.3798C86.9146 24.5907 86.3444 24.6961 85.8557 24.6961C84.4437 24.6961 83.3305 24.3008 82.5431 23.431C81.7285 22.5876 81.3212 21.4279 81.3212 19.9783C81.3212 18.476 81.7285 17.2899 82.5702 16.4201C83.412 15.5504 84.5252 15.1023 85.8828 15.1023C87.0232 15.1023 88.1908 15.4713 89.2497 16.2093L89.3855 16.3147V12.9674L89.3583 12.9411C88.8967 12.7566 88.3808 12.5457 87.6749 12.4139ZM99.3232 12.3085C98.4543 12.3085 97.6398 12.5721 96.9338 13.1256C96.3365 13.6 95.9292 14.2853 95.5762 15.1023H95.549V12.5457H92.0192V27.1473H95.549V19.6884C95.549 18.4232 95.8206 17.369 96.4179 16.6046C97.0153 15.8139 97.7755 15.4186 98.6987 15.4186C99.0245 15.4186 99.3504 15.4977 99.7577 15.5504C100.138 15.6558 100.409 15.7612 100.599 15.893L100.735 15.9984V12.5721L100.654 12.5457C100.409 12.3876 99.9206 12.3085 99.3232 12.3085ZM108.935 12.2295C106.464 12.2295 104.482 12.9411 103.097 14.338C101.685 15.7349 101.007 17.6589 101.007 20.0837C101.007 22.3504 101.713 24.1953 103.07 25.5395C104.428 26.8574 106.274 27.5426 108.582 27.5426C110.999 27.5426 112.927 26.831 114.311 25.4077C115.723 23.9845 116.402 22.0868 116.402 19.7411C116.402 17.4217 115.75 15.5767 114.42 14.2326C113.144 12.8884 111.27 12.2295 108.935 12.2295ZM111.759 23.4574C111.107 24.2744 110.076 24.6698 108.799 24.6698C107.523 24.6698 106.491 24.2744 105.758 23.4046C105.025 22.5876 104.672 21.4015 104.672 19.8992C104.672 18.3442 105.052 17.1581 105.758 16.3147C106.491 15.4713 107.496 15.0496 108.772 15.0496C110.021 15.0496 110.999 15.445 111.705 16.262C112.411 17.0791 112.791 18.2651 112.791 19.8201C112.736 21.4015 112.438 22.6403 111.759 23.4574ZM124.276 18.6077C123.163 18.1597 122.457 17.817 122.131 17.5271C121.86 17.2636 121.724 16.8946 121.724 16.4201C121.724 16.0248 121.887 15.6294 122.294 15.3659C122.701 15.1023 123.163 14.9705 123.842 14.9705C124.439 14.9705 125.064 15.076 125.661 15.2341C126.258 15.3922 126.801 15.6295 127.236 15.9457L127.372 16.0512V12.8357L127.29 12.8093C126.883 12.6512 126.34 12.493 125.688 12.3612C125.036 12.2558 124.439 12.2031 123.95 12.2031C122.267 12.2031 120.882 12.5984 119.796 13.4682C118.71 14.2853 118.194 15.3922 118.194 16.6837C118.194 17.369 118.303 17.9752 118.547 18.476C118.791 18.9767 119.144 19.4512 119.633 19.8465C120.122 20.2155 120.828 20.6372 121.805 21.0326C122.62 21.3752 123.244 21.6388 123.625 21.8496C124.005 22.0605 124.249 22.2977 124.439 22.4822C124.575 22.693 124.656 22.9566 124.656 23.2992C124.656 24.2744 123.896 24.7488 122.348 24.7488C121.751 24.7488 121.127 24.6434 120.393 24.4062C119.66 24.169 118.981 23.8263 118.411 23.431L118.276 23.3256V26.6729L118.357 26.6992C118.873 26.9364 119.497 27.0946 120.258 27.2791C121.018 27.4108 121.697 27.5163 122.294 27.5163C124.113 27.5163 125.607 27.1209 126.666 26.2512C127.752 25.4077 128.322 24.3271 128.322 22.9302C128.322 21.955 128.05 21.0853 127.453 20.4263C126.666 19.7938 125.688 19.1349 124.276 18.6077ZM137.635 12.2295C135.164 12.2295 133.182 12.9411 131.797 14.338C130.413 15.7349 129.707 17.6589 129.707 20.0837C129.707 22.3504 130.413 24.1953 131.77 25.5395C133.128 26.8574 134.974 27.5426 137.282 27.5426C139.699 27.5426 141.627 26.831 143.011 25.4077C144.423 23.9845 145.102 22.0868 145.102 19.7411C145.102 17.4217 144.45 15.5767 143.12 14.2326C141.844 12.8884 139.97 12.2295 137.635 12.2295ZM140.432 23.4574C139.78 24.2744 138.748 24.6698 137.472 24.6698C136.169 24.6698 135.164 24.2744 134.431 23.4046C133.698 22.5876 133.345 21.4015 133.345 19.8992C133.345 18.3442 133.725 17.1581 134.431 16.3147C135.164 15.4713 136.169 15.0496 137.445 15.0496C138.667 15.0496 139.672 15.445 140.378 16.262C141.083 17.0791 141.464 18.2651 141.464 19.8201C141.464 21.4015 141.111 22.6403 140.432 23.4574ZM163.973 15.3659V12.5457H160.416V8.22325L160.307 8.24961L156.94 9.2248L156.859 9.25116V12.5457H151.537V10.7008C151.537 9.85736 151.754 9.19844 152.134 8.77674C152.515 8.35503 153.085 8.14418 153.791 8.14418C154.28 8.14418 154.795 8.24961 155.366 8.48682L155.501 8.56589V5.58759L155.42 5.56123C154.931 5.40309 154.28 5.29767 153.438 5.29767C152.379 5.29767 151.456 5.53488 150.614 5.93023C149.772 6.37829 149.148 6.98449 148.686 7.80154C148.225 8.59224 147.98 9.48837 147.98 10.5163V12.5457H145.509V15.3395H147.98V27.1473H151.537V15.3659H156.859V22.8775C156.859 25.9612 158.352 27.5163 161.339 27.5163C161.828 27.5163 162.344 27.4372 162.832 27.3581C163.348 27.2527 163.729 27.1209 163.946 27.0155L163.973 26.9891V24.169L163.837 24.2744C163.62 24.4062 163.43 24.5116 163.104 24.5907C162.832 24.6698 162.588 24.6961 162.398 24.6961C161.692 24.6961 161.203 24.538 160.85 24.1426C160.525 23.7736 160.362 23.1674 160.362 22.2713V15.3659H163.973Z" fill="#737373"/>
<path d="M0 0H16.6444V16.1566H0V0Z" fill="#F25022"/>
<path d="M18.3818 0H35.0262V16.1566H18.3818V0Z" fill="#7FBA00"/>
<path d="M0 17.8434H16.6444V34H0V17.8434Z" fill="#00A4EF"/>
<path d="M18.3818 17.8434H35.0262V34H18.3818V17.8434Z" fill="#FFB900"/>
</g>
<defs>
<clipPath id="clip0_42_86">
<rect width="164" height="34" fill="white"/>
</clipPath>
</defs>
</symbol>

<symbol id="fedex" width="140" height="42" viewBox="0 0 140 42" fill="none" xmlns="http://www.w3.org/2000/svg">
<g clip-path="url(#clip0_42_92)">
<path d="M104.109 40.743L115.785 27.8118L104.109 14.8788H116.428L122.211 21.1608L127.779 14.8788H139.668L128.048 27.7584L139.828 40.743H127.458L121.728 34.4094L116.052 40.743H104.109Z" fill="#FF6600"/>
<path d="M104.109 9.081H90.886V14.8788H104.109V23.6166H90.886V31.6368H104.109V40.743H81.167V0H104.109V9.081Z" fill="#FF6600"/>
<path d="M71.4889 0V16.674H71.3824C69.2397 14.2464 66.5627 13.4028 63.4565 13.4028C57.0938 13.4028 52.301 17.6664 50.6185 23.3034C48.6999 17.0922 43.7518 13.2864 36.4146 13.2864C30.4561 13.2864 25.7509 15.9228 23.2954 20.2188V14.8794H10.979V9.0822H24.4197V0H0V40.7436H10.979V23.6166H21.9222C21.5959 24.8748 21.4218 26.2218 21.4218 27.6432C21.4218 36.1422 28.0085 42.1056 36.4146 42.1056C43.4834 42.1056 48.1417 38.8344 50.6057 32.8704H41.1971C39.9244 34.662 38.959 35.1942 36.4146 35.1942C33.4643 35.1942 30.9205 32.6568 30.9205 29.649H50.0786C50.9095 36.3996 56.2441 42.2214 63.5649 42.2214C66.7228 42.2214 69.6141 40.6902 71.3824 38.1048H71.4889V40.7424H81.1671V0H71.4889ZM31.2261 23.7384C31.8366 21.1506 33.8727 19.4592 36.4146 19.4592C39.2128 19.4592 41.1454 21.0984 41.6537 23.7384C41.8679 23.7384 31.2261 23.7384 31.2261 23.7384ZM65.6156 34.5396C62.048 34.5396 59.8311 31.263 59.8311 27.8418C59.8311 24.1848 61.7595 20.6682 65.6156 20.6682C69.6141 20.6682 71.207 24.1848 71.207 27.8418C71.2064 31.3098 69.5185 34.5396 65.6156 34.5396Z" fill="#652C8F"/>
</g>
<defs>
<clipPath id="clip0_42_92">
<rect width="140" height="42" fill="white"/>
</clipPath>
</defs>
</symbol>


<symbol id="activity"  viewBox="0 0 68 67" fill="none" >
<path d="M37.6799 8.42617L18.1496 14.4376C11.0324 16.6282 7.9973 22.1449 9.75752 29.6911L14.5832 50.379C16.3434 57.9252 21.3731 60.9595 28.4903 58.7689L48.0206 52.7575C55.1378 50.5668 58.1543 45.0558 56.3941 37.5097L51.5684 16.8218C49.8082 9.27558 44.7971 6.23553 37.6799 8.42617Z" fill="url(#paint0_linear_42_136)"/>
<g opacity="0.5" filter="url(#filter0_f_42_136)">
<path d="M36.2821 17.6791L23.3814 21.6497C18.6802 23.0967 16.6436 26.6043 17.7502 31.3481L20.7839 44.3534C21.8905 49.0973 25.1811 50.9652 29.8823 49.5183L42.783 45.5476C47.4842 44.1007 49.5086 40.5969 48.402 35.853L45.3682 22.8477C44.2616 18.1039 40.9833 16.2322 36.2821 17.6791Z" fill="#E31313"/>
</g>
<g filter="url(#filter1_b_42_136)">
<path d="M50.5634 19.2966H32.1057C24.8886 19.2966 20.0347 24.8543 20.0347 33.1208V52.199C20.0347 60.4421 24.8886 65.9998 32.1057 65.9998H50.5634C57.7805 65.9998 62.6131 60.4421 62.6131 52.199V33.1208C62.6131 24.8543 57.7805 19.2966 50.5634 19.2966Z" fill="#F03E3D"/>
<path d="M50.5634 18.7966H32.1057C28.3602 18.7966 25.2025 20.243 22.9872 22.7799C20.777 25.3109 19.5347 28.8916 19.5347 33.1208V52.199C19.5347 56.4168 20.7771 59.9917 22.9874 62.5197C25.2027 65.0535 28.3602 66.4998 32.1057 66.4998H50.5634C54.309 66.4998 57.4615 65.0534 59.6715 62.5192C61.8763 59.991 63.1131 56.4163 63.1131 52.199V33.1208C63.1131 28.8921 61.8765 25.3116 59.6717 22.7804C57.4616 20.2431 54.309 18.7966 50.5634 18.7966Z" stroke="url(#paint1_linear_42_136)" stroke-linecap="round" stroke-linejoin="round"/>
</g>
<g filter="url(#filter2_b_42_136)">
<path d="M64.8719 15.8657C63.1442 15.8657 61.7437 17.4019 61.7437 19.297C61.7437 21.192 63.1442 22.7282 64.8719 22.7282C66.5995 22.7282 68.0001 21.192 68.0001 19.297C68.0001 18.3869 67.6705 17.5142 67.0838 16.8707C66.4972 16.2272 65.7015 15.8657 64.8719 15.8657Z" fill="url(#paint2_linear_42_136)"/>
</g>
<g filter="url(#filter3_bd_42_136)">
<path d="M52.4624 38.5129L46.3783 47.1245C46.1223 47.4988 45.7384 47.743 45.3147 47.801C44.8911 47.859 44.4641 47.7258 44.1319 47.4321L38.2911 42.4086L33.0307 49.872C32.6497 50.5355 31.9078 50.8337 31.2255 50.5974C30.5432 50.3612 30.0925 49.6501 30.129 48.8673C30.1259 48.48 30.2449 48.1034 30.466 47.8011L36.756 38.9025C37.0089 38.5312 37.3877 38.2871 37.8069 38.2254C38.2261 38.1636 38.6503 38.2895 38.9838 38.5744L44.8245 43.6184L49.9539 36.3805C50.2005 36.0073 50.5747 35.7596 50.991 35.6939C51.4073 35.6282 51.8301 35.7502 52.1629 36.0319C52.8504 36.6217 52.9833 37.7042 52.4624 38.4719V38.5129Z" fill="url(#paint3_linear_42_136)"/>
<path d="M46.215 47.0091L46.2149 47.0091L46.2132 47.0116C45.987 47.3425 45.6516 47.553 45.2876 47.6029C44.924 47.6526 44.5548 47.5391 44.2644 47.2822L44.2623 47.2804L38.4215 42.257L38.2545 42.1134L38.1276 42.2934L32.8672 49.7568L32.8619 49.7644L32.8572 49.7724C32.5199 50.3599 31.8748 50.6106 31.2909 50.4084C30.7018 50.2044 30.2959 49.5812 30.3288 48.8767L30.3291 48.8767L30.329 48.8657C30.3262 48.5198 30.4326 48.1855 30.6274 47.9192L30.6274 47.9192L30.6293 47.9166L36.9194 39.0179L36.9194 39.0179L36.9213 39.0151C37.1449 38.6868 37.4758 38.4763 37.8361 38.4232C38.1956 38.3703 38.5622 38.4774 38.8534 38.7261C38.8536 38.7262 38.8537 38.7263 38.8538 38.7265L44.6938 43.7697L44.8604 43.9136L44.9877 43.734L50.1171 36.4961L50.1172 36.4962L50.1208 36.4908C50.3385 36.1612 50.6651 35.9478 51.0222 35.8915C51.3786 35.8352 51.7431 35.9388 52.0331 36.1841C52.6401 36.7053 52.7627 37.6731 52.2969 38.3596L52.2624 38.4105V38.4494L46.215 47.0091Z" stroke="url(#paint4_linear_42_136)" stroke-width="0.4"/>
</g>
<defs>
<filter id="filter0_f_42_136" x="0.455566" y="0.201172" width="65.2422" height="66.7954" filterUnits="userSpaceOnUse" color-interpolation-filters="sRGB">
<feFlood flood-opacity="0" result="BackgroundImageFix"/>
<feBlend mode="normal" in="SourceGraphic" in2="BackgroundImageFix" result="shape"/>
<feGaussianBlur stdDeviation="8.5" result="effect1_foregroundBlur_42_136"/>
</filter>
<filter id="filter1_b_42_136" x="-4.96533" y="-5.70337" width="92.5786" height="96.7031" filterUnits="userSpaceOnUse" color-interpolation-filters="sRGB">
<feFlood flood-opacity="0" result="BackgroundImageFix"/>
<feGaussianBlur in="BackgroundImageFix" stdDeviation="12"/>
<feComposite in2="SourceAlpha" operator="in" result="effect1_backgroundBlur_42_136"/>
<feBlend mode="normal" in="SourceGraphic" in2="effect1_backgroundBlur_42_136" result="shape"/>
</filter>
<filter id="filter2_b_42_136" x="46.7437" y="0.865723" width="36.2563" height="36.8625" filterUnits="userSpaceOnUse" color-interpolation-filters="sRGB">
<feFlood flood-opacity="0" result="BackgroundImageFix"/>
<feGaussianBlur in="BackgroundImageFix" stdDeviation="7.5"/>
<feComposite in2="SourceAlpha" operator="in" result="effect1_backgroundBlur_42_136"/>
<feBlend mode="normal" in="SourceGraphic" in2="effect1_backgroundBlur_42_136" result="shape"/>
</filter>
<filter id="filter3_bd_42_136" x="15.127" y="20.6765" width="52.6533" height="45.0012" filterUnits="userSpaceOnUse" color-interpolation-filters="sRGB">
<feFlood flood-opacity="0" result="BackgroundImageFix"/>
<feGaussianBlur in="BackgroundImageFix" stdDeviation="7.5"/>
<feComposite in2="SourceAlpha" operator="in" result="effect1_backgroundBlur_42_136"/>
<feColorMatrix in="SourceAlpha" type="matrix" values="0 0 0 0 0 0 0 0 0 0 0 0 0 0 0 0 0 0 127 0" result="hardAlpha"/>
<feOffset dx="5" dy="5"/>
<feGaussianBlur stdDeviation="5"/>
<feColorMatrix type="matrix" values="0 0 0 0 1 0 0 0 0 0.321569 0 0 0 0 0.54902 0 0 0 0.5 0"/>
<feBlend mode="normal" in2="effect1_backgroundBlur_42_136" result="effect2_dropShadow_42_136"/>
<feBlend mode="normal" in="SourceGraphic" in2="effect2_dropShadow_42_136" result="shape"/>
</filter>
<linearGradient id="paint0_linear_42_136" x1="36.8464" y1="35.6215" x2="2.4676" y2="63.315" gradientUnits="userSpaceOnUse">
<stop stop-color="#F03E3D"/>
<stop offset="1" stop-color="#870404"/>
</linearGradient>
<linearGradient id="paint1_linear_42_136" x1="26.8125" y1="24.7376" x2="57.065" y2="58.8969" gradientUnits="userSpaceOnUse">
<stop stop-color="white" stop-opacity="0.25"/>
<stop offset="1" stop-color="white" stop-opacity="0"/>
</linearGradient>
<linearGradient id="paint2_linear_42_136" x1="65.3325" y1="19.7565" x2="59.6516" y2="22.2747" gradientUnits="userSpaceOnUse">
<stop stop-color="#FF759F" stop-opacity="0"/>
<stop offset="1" stop-color="#FF196E"/>
</linearGradient>
<linearGradient id="paint3_linear_42_136" x1="51.1741" y1="38.3854" x2="25.9748" y2="39.6261" gradientUnits="userSpaceOnUse">
<stop stop-color="white"/>
<stop offset="1" stop-color="white" stop-opacity="0.2"/>
</linearGradient>
<linearGradient id="paint4_linear_42_136" x1="33.733" y1="37.4242" x2="41.8736" y2="52.6495" gradientUnits="userSpaceOnUse">
<stop stop-color="white" stop-opacity="0.25"/>
<stop offset="1" stop-color="white" stop-opacity="0"/>
</linearGradient>
</defs>
</symbol>


<symbol id="chart" viewBox="0 0 72 72" fill="none" >
<g filter="url(#filter0_b_42_148)">
<path d="M37.1408 7.34107L16.6858 13.1889C9.23166 15.3199 6.13984 21.033 8.13698 28.9854L13.6122 50.787C15.6093 58.7394 20.9642 62.0376 28.4183 59.9066L48.8734 54.0588C56.3275 51.9277 59.3999 46.2202 57.4027 38.2678L51.9275 16.4662C49.9304 8.51386 44.595 5.21004 37.1408 7.34107Z" fill="url(#paint0_linear_42_148)"/>
</g>
<g opacity="0.5" filter="url(#filter1_f_42_148)">
<path d="M47.2199 35.9124L43.5054 20.8997C42.158 15.4542 38.7858 13.0126 34.3519 14.2615L19.3345 18.4913C14.8278 19.7607 13.0827 23.6437 14.4301 29.0892L18.1447 44.1019C19.5137 49.6351 22.8056 52.0036 27.3123 50.7343L42.3297 46.5044C46.7637 45.2555 48.589 41.4456 47.2199 35.9124Z" fill="#11B5E4"/>
</g>
<g filter="url(#filter2_b_42_148)">
<mask id="path-3-outside-1_42_148" maskUnits="userSpaceOnUse" x="20.6611" y="16.626" width="48" height="51" fill="black">
<rect fill="white" x="20.6611" y="16.626" width="48" height="51"/>
<path d="M54.9241 17.626H33.7494C26.0331 17.626 21.6611 22.2906 21.6611 30.5235V53.0942C21.6611 61.3271 26.0331 65.9917 33.7494 65.9917H54.9241C62.6404 65.9917 66.9922 61.3271 66.9922 53.0942V30.5235C66.9922 22.2906 62.6404 17.626 54.9241 17.626Z"/>
</mask>
<path d="M54.9241 17.626H33.7494C26.0331 17.626 21.6611 22.2906 21.6611 30.5235V53.0942C21.6611 61.3271 26.0331 65.9917 33.7494 65.9917H54.9241C62.6404 65.9917 66.9922 61.3271 66.9922 53.0942V30.5235C66.9922 22.2906 62.6404 17.626 54.9241 17.626Z" fill="#00ACDD"/>
<path d="M54.9241 18.626C55.4763 18.626 55.9241 18.1783 55.9241 17.626C55.9241 17.0737 55.4763 16.626 54.9241 16.626V18.626ZM54.9241 16.626C54.3718 16.626 53.9241 17.0737 53.9241 17.626C53.9241 18.1783 54.3718 18.626 54.9241 18.626V16.626ZM54.9241 16.626H33.7494V18.626H54.9241V16.626ZM33.7494 16.626C29.6868 16.626 26.3727 17.8595 24.082 20.3035C21.8002 22.7381 20.6611 26.2381 20.6611 30.5235H22.6611C22.6611 26.576 23.708 23.6272 25.5413 21.6712C27.3656 19.7248 30.0957 18.626 33.7494 18.626V16.626ZM20.6611 30.5235V53.0942H22.6611V30.5235H20.6611ZM20.6611 53.0942C20.6611 57.3796 21.8002 60.8796 24.082 63.3141C26.3727 65.7582 29.6868 66.9917 33.7494 66.9917V64.9917C30.0957 64.9917 27.3656 63.8929 25.5413 61.9464C23.708 59.9904 22.6611 57.0417 22.6611 53.0942H20.6611ZM33.7494 66.9917H54.9241V64.9917H33.7494V66.9917ZM54.9241 66.9917C58.9868 66.9917 62.2964 65.7581 64.5822 63.3132C66.8587 60.8783 67.9922 57.3784 67.9922 53.0942H65.9922C65.9922 57.0428 64.9498 59.9917 63.1213 61.9473C61.3022 63.893 58.5776 64.9917 54.9241 64.9917V66.9917ZM67.9922 53.0942V30.5235H65.9922V53.0942H67.9922ZM67.9922 30.5235C67.9922 26.2392 66.8587 22.7393 64.5822 20.3044C62.2964 17.8596 58.9868 16.626 54.9241 16.626V18.626C58.5776 18.626 61.3022 19.7247 63.1213 21.6703C64.9498 23.626 65.9922 26.5748 65.9922 30.5235H67.9922Z" fill="url(#paint1_linear_42_148)" mask="url(#path-3-outside-1_42_148)"/>
</g>
<g filter="url(#filter3_bd_42_148)">
<mask id="path-5-inside-2_42_148" fill="white">
<path fill-rule="evenodd" clip-rule="evenodd" d="M44.4062 27.5142C43.3787 27.5142 42.5325 28.417 42.5325 29.5348V54.0831C42.5325 55.1794 43.3787 56.0822 44.4062 56.0822C45.4538 56.0822 46.3 55.1794 46.3 54.0831V29.5348C46.3 28.417 45.4538 27.5142 44.4062 27.5142ZM33.8293 35.4468C32.8017 35.4468 31.9556 36.3497 31.9556 37.4675V54.0838C31.9556 55.1801 32.8017 56.0829 33.8293 56.0829C34.8769 56.0829 35.7231 55.1801 35.7231 54.0838V37.4675C35.7231 36.3497 34.8769 35.4468 33.8293 35.4468ZM52.9492 46.2376C52.9492 45.1198 53.7954 44.217 54.8431 44.217C55.8706 44.217 56.7168 45.1198 56.7168 46.2376V54.0836C56.7168 55.1799 55.8706 56.0827 54.8229 56.0827C53.7954 56.0827 52.9492 55.1799 52.9492 54.0836V46.2376Z"/>
</mask>
<path fill-rule="evenodd" clip-rule="evenodd" d="M44.4062 27.5142C43.3787 27.5142 42.5325 28.417 42.5325 29.5348V54.0831C42.5325 55.1794 43.3787 56.0822 44.4062 56.0822C45.4538 56.0822 46.3 55.1794 46.3 54.0831V29.5348C46.3 28.417 45.4538 27.5142 44.4062 27.5142ZM33.8293 35.4468C32.8017 35.4468 31.9556 36.3497 31.9556 37.4675V54.0838C31.9556 55.1801 32.8017 56.0829 33.8293 56.0829C34.8769 56.0829 35.7231 55.1801 35.7231 54.0838V37.4675C35.7231 36.3497 34.8769 35.4468 33.8293 35.4468ZM52.9492 46.2376C52.9492 45.1198 53.7954 44.217 54.8431 44.217C55.8706 44.217 56.7168 45.1198 56.7168 46.2376V54.0836C56.7168 55.1799 55.8706 56.0827 54.8229 56.0827C53.7954 56.0827 52.9492 55.1799 52.9492 54.0836V46.2376Z" fill="url(#paint2_linear_42_148)"/>
<path d="M42.9325 29.5348C42.9325 28.6102 43.6263 27.9142 44.4062 27.9142V27.1142C43.1311 27.1142 42.1325 28.2238 42.1325 29.5348H42.9325ZM42.9325 54.0831V29.5348H42.1325V54.0831H42.9325ZM44.4062 55.6822C43.6236 55.6822 42.9325 54.9833 42.9325 54.0831H42.1325C42.1325 55.3755 43.1337 56.4822 44.4062 56.4822V55.6822ZM45.9 54.0831C45.9 54.9804 45.2116 55.6822 44.4062 55.6822V56.4822C45.6961 56.4822 46.7 55.3783 46.7 54.0831H45.9ZM45.9 29.5348V54.0831H46.7V29.5348H45.9ZM44.4062 27.9142C45.2089 27.9142 45.9 28.6131 45.9 29.5348H46.7C46.7 28.2209 45.6988 27.1142 44.4062 27.1142V27.9142ZM32.3556 37.4675C32.3556 36.5429 33.0494 35.8468 33.8293 35.8468V35.0468C32.5541 35.0468 31.5556 36.1564 31.5556 37.4675H32.3556ZM32.3556 54.0838V37.4675H31.5556V54.0838H32.3556ZM33.8293 55.6829C33.0467 55.6829 32.3556 54.984 32.3556 54.0838H31.5556C31.5556 55.3762 32.5568 56.4829 33.8293 56.4829V55.6829ZM35.3231 54.0838C35.3231 54.9811 34.6347 55.6829 33.8293 55.6829V56.4829C35.1191 56.4829 36.1231 55.379 36.1231 54.0838H35.3231ZM35.3231 37.4675V54.0838H36.1231V37.4675H35.3231ZM33.8293 35.8468C34.632 35.8468 35.3231 36.5458 35.3231 37.4675H36.1231C36.1231 36.1536 35.1218 35.0468 33.8293 35.0468V35.8468ZM54.8431 43.817C53.5505 43.817 52.5492 44.9237 52.5492 46.2376H53.3492C53.3492 45.3159 54.0403 44.617 54.8431 44.617V43.817ZM57.1168 46.2376C57.1168 44.9266 56.1182 43.817 54.8431 43.817V44.617C55.623 44.617 56.3168 45.313 56.3168 46.2376H57.1168ZM57.1168 54.0836V46.2376H56.3168V54.0836H57.1168ZM54.8229 56.4827C56.1128 56.4827 57.1168 55.3789 57.1168 54.0836H56.3168C56.3168 54.9809 55.6283 55.6827 54.8229 55.6827V56.4827ZM52.5492 54.0836C52.5492 55.376 53.5505 56.4827 54.8229 56.4827V55.6827C54.0403 55.6827 53.3492 54.9838 53.3492 54.0836H52.5492ZM52.5492 46.2376V54.0836H53.3492V46.2376H52.5492Z" fill="url(#paint3_linear_42_148)" mask="url(#path-5-inside-2_42_148)"/>
</g>
<defs>
<filter id="filter0_b_42_148" x="-5.45654" y="-6.2915" width="76.4546" height="79.8315" filterUnits="userSpaceOnUse" color-interpolation-filters="sRGB">
<feFlood flood-opacity="0" result="BackgroundImageFix"/>
<feGaussianBlur in="BackgroundImageFix" stdDeviation="6.5"/>
<feComposite in2="SourceAlpha" operator="in" result="effect1_backgroundBlur_42_148"/>
<feBlend mode="normal" in="SourceGraphic" in2="effect1_backgroundBlur_42_148" result="shape"/>
</filter>
<filter id="filter1_f_42_148" x="0.986328" y="0.940918" width="59.6797" height="63.1279" filterUnits="userSpaceOnUse" color-interpolation-filters="sRGB">
<feFlood flood-opacity="0" result="BackgroundImageFix"/>
<feBlend mode="normal" in="SourceGraphic" in2="BackgroundImageFix" result="shape"/>
<feGaussianBlur stdDeviation="6.5" result="effect1_foregroundBlur_42_148"/>
</filter>
<filter id="filter2_b_42_148" x="5.66113" y="1.62598" width="77.3311" height="80.3657" filterUnits="userSpaceOnUse" color-interpolation-filters="sRGB">
<feFlood flood-opacity="0" result="BackgroundImageFix"/>
<feGaussianBlur in="BackgroundImageFix" stdDeviation="7.5"/>
<feComposite in2="SourceAlpha" operator="in" result="effect1_backgroundBlur_42_148"/>
<feBlend mode="normal" in="SourceGraphic" in2="effect1_backgroundBlur_42_148" result="shape"/>
</filter>
<filter id="filter3_bd_42_148" x="16.9556" y="12.5142" width="54.7612" height="58.5688" filterUnits="userSpaceOnUse" color-interpolation-filters="sRGB">
<feFlood flood-opacity="0" result="BackgroundImageFix"/>
<feGaussianBlur in="BackgroundImageFix" stdDeviation="7.5"/>
<feComposite in2="SourceAlpha" operator="in" result="effect1_backgroundBlur_42_148"/>
<feColorMatrix in="SourceAlpha" type="matrix" values="0 0 0 0 0 0 0 0 0 0 0 0 0 0 0 0 0 0 127 0" result="hardAlpha"/>
<feOffset dx="5" dy="5"/>
<feGaussianBlur stdDeviation="5"/>
<feColorMatrix type="matrix" values="0 0 0 0 1 0 0 0 0 0.447059 0 0 0 0 0.368627 0 0 0 0.5 0"/>
<feBlend mode="normal" in2="effect1_backgroundBlur_42_148" result="effect2_dropShadow_42_148"/>
<feBlend mode="normal" in="SourceGraphic" in2="effect2_dropShadow_42_148" result="shape"/>
</filter>
<linearGradient id="paint0_linear_42_148" x1="36.7793" y1="35.8334" x2="1.47372" y2="64.5297" gradientUnits="userSpaceOnUse">
<stop stop-color="#11B5E4"/>
<stop offset="1" stop-color="#035B81"/>
</linearGradient>
<linearGradient id="paint1_linear_42_148" x1="28.8771" y1="23.2606" x2="60.0902" y2="59.4933" gradientUnits="userSpaceOnUse">
<stop stop-color="white" stop-opacity="0.25"/>
<stop offset="1" stop-color="white" stop-opacity="0"/>
</linearGradient>
<linearGradient id="paint2_linear_42_148" x1="25.5462" y1="48.7185" x2="38.4094" y2="73.486" gradientUnits="userSpaceOnUse">
<stop stop-color="white"/>
<stop offset="1" stop-color="white" stop-opacity="0.2"/>
</linearGradient>
<linearGradient id="paint3_linear_42_148" x1="35.8971" y1="30.8425" x2="54.4928" y2="50.8041" gradientUnits="userSpaceOnUse">
<stop stop-color="white" stop-opacity="0.25"/>
<stop offset="1" stop-color="white" stop-opacity="0"/>
</linearGradient>
</defs>
</symbol>

<!-- Effects section icons -->

<symbol id='effects-icon1' width="50" height="50" viewBox="0 0 50 50" >
<rect width="50" height="50" rx="25" fill="#F4F5F7"/>
<g clip-path="url(#clip0_34_123)">
<path d="M31 23H37L34 19L31 23ZM31 27H37L34 31L31 27Z" fill="#D6B1FF"/>
<path d="M14 13H20V37H14C13.7348 37 13.4804 36.8946 13.2929 36.7071C13.1054 36.5196 13 36.2652 13 36V14C13 13.7348 13.1054 13.4804 13.2929 13.2929C13.4804 13.1054 13.7348 13 14 13Z" fill="#02897A"/>
<path d="M22 13H28C28.2652 13 28.5196 13.1054 28.7071 13.2929C28.8946 13.4804 29 13.7348 29 14V36C29 36.2652 28.8946 36.5196 28.7071 36.7071C28.5196 36.8946 28.2652 37 28 37H22V13Z" fill="#02897A"/>
</g>
<defs>
<clipPath id="clip0_34_123">
<rect width="24" height="24" fill="white" transform="translate(13 13)"/>
</clipPath>
</defs>
</symbol>

<symbol id='effects-icon2' width="50" height="50" viewBox="0 0 50 50" >
<rect width="50" height="50" rx="25" fill="#F4F5F7"/>
<path d="M34 37H25C24.7348 37 24.4804 36.8946 24.2929 36.7071C24.1054 36.5196 24 36.2652 24 36V34C24 33.7348 24.1054 33.4804 24.2929 33.2929C24.4804 33.1054 24.7348 33 25 33H34C34.2652 33 34.5196 33.1054 34.7071 33.2929C34.8946 33.4804 35 33.7348 35 34V36C35 36.2652 34.8946 36.5196 34.7071 36.7071C34.5196 36.8946 34.2652 37 34 37Z" fill="#D6B1FF"/>
<path d="M34 13H16C15.7348 13 15.4804 13.1054 15.2929 13.2929C15.1054 13.4804 15 13.7348 15 14V16C15 16.2652 15.1054 16.5196 15.2929 16.7071C15.4804 16.8946 15.7348 17 16 17H34C34.2652 17 34.5196 16.8946 34.7071 16.7071C34.8946 16.5196 35 16.2652 35 16V14C35 13.7348 34.8946 13.4804 34.7071 13.2929C34.5196 13.1054 34.2652 13 34 13Z" fill="#11B5E4"/>
<path d="M34 19H16C15.7348 19 15.4804 19.1054 15.2929 19.2929C15.1054 19.4804 15 19.7348 15 20V30C15 30.2652 15.1054 30.5196 15.2929 30.7071C15.4804 30.8946 15.7348 31 16 31H34C34.2652 31 34.5196 30.8946 34.7071 30.7071C34.8946 30.5196 35 30.2652 35 30V20C35 19.7348 34.8946 19.4804 34.7071 19.2929C34.5196 19.1054 34.2652 19 34 19Z" fill="#11B5E4"/>
</symbol>

<symbol id='effects-icon3' width="50" height="50" viewBox="0 0 50 50" >
<rect width="50" height="50" rx="25" fill="#F4F5F7"/>
<path d="M18 14H15C14.7348 14 14.4804 14.1054 14.2929 14.2929C14.1054 14.4804 14 14.7348 14 15V35C14 35.2652 14.1054 35.5196 14.2929 35.7071C14.4804 35.8946 14.7348 36 15 36H18V14Z" fill="#D6B1FF"/>
<path d="M20 36H30V14H20V36ZM25 32C24.7348 32 24.4804 31.8946 24.2929 31.7071C24.1054 31.5196 24 31.2652 24 31C24 30.7348 24.1054 30.4804 24.2929 30.2929C24.4804 30.1054 24.7348 30 25 30C25.2652 30 25.5196 30.1054 25.7071 30.2929C25.8946 30.4804 26 30.7348 26 31C26 31.2652 25.8946 31.5196 25.7071 31.7071C25.5196 31.8946 25.2652 32 25 32ZM25 18C25.2652 18 25.5196 18.1054 25.7071 18.2929C25.8946 18.4804 26 18.7348 26 19C26 19.2652 25.8946 19.5196 25.7071 19.7071C25.5196 19.8946 25.2652 20 25 20C24.7348 20 24.4804 19.8946 24.2929 19.7071C24.1054 19.5196 24 19.2652 24 19C24 18.7348 24.1054 18.4804 24.2929 18.2929C24.4804 18.1054 24.7348 18 25 18ZM25 24C25.2652 24 25.5196 24.1054 25.7071 24.2929C25.8946 24.4804 26 24.7348 26 25C26 25.2652 25.8946 25.5196 25.7071 25.7071C25.5196 25.8946 25.2652 26 25 26C24.7348 26 24.4804 25.8946 24.2929 25.7071C24.1054 25.5196 24 25.2652 24 25C24 24.7348 24.1054 24.4804 24.2929 24.2929C24.4804 24.1054 24.7348 24 25 24Z" fill="#F03E3D"/>
<path d="M35 14H32V36H35C35.2652 36 35.5196 35.8946 35.7071 35.7071C35.8946 35.5196 36 35.2652 36 35V15C36 14.7348 35.8946 14.4804 35.7071 14.2929C35.5196 14.1054 35.2652 14 35 14Z" fill="#F03E3D"/>
</symbol>


<!-- Question Icons -->

<symbol id='question-icon-close' viewBox="0 0 24 24" >
  <path fill-rule="evenodd" clip-rule="evenodd" d="M0 12C0 5.376 5.376 0 12 0C18.624 0 24 5.376 24 12C24 18.624 18.624 24 12 24C5.376 24 0 18.624 0 12ZM13.2 13.2H18V10.8H13.2V6H10.8V10.8H6V13.2H10.8V18H13.2V13.2Z" />
</symbol>

<symbol id='question-icon-open' viewBox="0 0 24 24" >
  <path fill-rule="evenodd" clip-rule="evenodd" d="M0 12C0 5.376 5.376 0 12 0C18.624 0 24 5.376 24 12C24 18.624 18.624 24 12 24C5.376 24 0 18.624 0 12ZM6 13.2H18V10.8H6V13.2Z"  />
</symbol>


</svg>
